<svg width="20" height="20" viewBox="0 0 20 20" fill="none" xmlns="http://www.w3.org/2000/svg">
<path d="M18 0.71875H2C1.44772 0.71875 1 1.22636 1 1.85254V17.7256C1 18.3518 1.44772 18.8594 2 18.8594H18C18.5523 18.8594 19 18.3518 19 17.7256V1.85254C19 1.22636 18.5523 0.71875 18 0.71875Z" stroke="#464646" stroke-linecap="round" stroke-linejoin="round"/>
<path d="M1 13.7672L6.22999 7.98994C6.63274 7.54505 7.36128 7.54984 7.75746 7.99999L11.299 12.0238C11.6754 12.4516 12.3585 12.4809 12.7743 12.0872L14.21 10.7279C14.6314 10.3288 15.3256 10.3652 15.698 10.8059L19 14.714" stroke="#464646" stroke-linecap="round" stroke-linejoin="round"/>
<path d="M11.0454 6.79997C11.0454 6.15483 11.5644 5.63184 12.2045 5.63184C12.8446 5.63184 13.3636 6.15483 13.3636 6.79997C13.3636 7.44512 12.8446 7.96811 12.2045 7.96811C11.5644 7.96811 11.0454 7.44512 11.0454 6.79997Z" stroke="#464646" stroke-linecap="round" stroke-linejoin="round"/>
</svg>
