<svg width="22" height="17" viewBox="0 0 22 17" fill="none" xmlns="http://www.w3.org/2000/svg">
<path d="M1 14.1016V13.6016C0.723858 13.6016 0.5 13.8254 0.5 14.1016H1ZM21 14.1016H21.5C21.5 13.8254 21.2761 13.6016 21 13.6016V14.1016ZM1 14.6016H21V13.6016H1V14.6016ZM20.5 14.1016V15.4453H21.5V14.1016H20.5ZM20 15.6172H2V16.6172H20V15.6172ZM1.5 15.4453V14.1016H0.5V15.4453H1.5ZM2 15.6172C1.80959 15.6172 1.65965 15.5644 1.57174 15.5053C1.48067 15.4442 1.5 15.4134 1.5 15.4453H0.5C0.5 15.8482 0.743186 16.1534 1.01405 16.3354C1.28807 16.5195 1.63813 16.6172 2 16.6172V15.6172ZM20.5 15.4453C20.5 15.4134 20.5193 15.4442 20.4283 15.5053C20.3403 15.5644 20.1904 15.6172 20 15.6172V16.6172C20.3619 16.6172 20.7119 16.5195 20.9859 16.3354C21.2568 16.1534 21.5 15.8482 21.5 15.4453H20.5Z" fill="#464646"/>
<path d="M18 1H4C3.44772 1 3 1.48882 3 2.0918V13.0098C3 13.6128 3.44772 14.1016 4 14.1016H18C18.5523 14.1016 19 13.6128 19 13.0098V2.0918C19 1.48882 18.5523 1 18 1Z" stroke="#464646" stroke-linecap="round" stroke-linejoin="round"/>
</svg>
