<svg width="20" height="20" viewBox="0 0 20 20" fill="none" xmlns="http://www.w3.org/2000/svg">
<rect x="1" y="1" width="18" height="18" rx="1.27119" stroke="#464646"/>
<path d="M1 5.83051C1 5.83051 3.35223 5.43007 4.36864 4.4322C5.40825 3.41156 5.83051 1 5.83051 1" stroke="#464646"/>
<path d="M18.8306 5.83051C18.8306 5.83051 16.4783 5.43007 15.4619 4.4322C14.4223 3.41156 14.0001 1 14.0001 1" stroke="#464646"/>
<path d="M1 14.0001C1 14.0001 3.35223 14.4005 4.36864 15.3984C5.40825 16.419 5.83051 18.8306 5.83051 18.8306" stroke="#464646"/>
<path d="M18.8306 14.0001C18.8306 14.0001 16.4783 14.4005 15.4619 15.3984C14.4223 16.419 14.0001 18.8306 14.0001 18.8306" stroke="#464646"/>
<path d="M15.6186 10C15.8293 10 16.0013 9.82905 15.9879 9.61886C15.8988 8.21831 15.3208 6.88858 14.3483 5.86571C13.2879 4.75043 11.8395 4.08523 10.3025 4.00763C8.76557 3.93003 7.25755 4.44597 6.09022 5.44878C4.92289 6.45158 4.18551 7.86459 4.03051 9.39569C3.87551 10.9268 4.31475 12.4589 5.25742 13.6753C6.20009 14.8917 7.57412 15.6994 9.09546 15.9314C10.6168 16.1634 12.1691 15.802 13.4315 14.9219C14.5893 14.1147 15.422 12.9277 15.79 11.5735C15.8452 11.3702 15.711 11.1683 15.5047 11.126L15.3121 11.0867C15.1058 11.0444 14.9057 11.1781 14.848 11.3806C14.531 12.494 13.8388 13.4685 12.8829 14.135C11.8223 14.8744 10.5182 15.178 9.24007 14.9831C7.96196 14.7882 6.80761 14.1097 6.01564 13.0877C5.22368 12.0658 4.85467 10.7786 4.98489 9.4923C5.1151 8.20599 5.7346 7.01889 6.7153 6.17641C7.696 5.33392 8.96293 4.90047 10.2542 4.96567C11.5454 5.03086 12.7622 5.5897 13.6531 6.52668C14.4561 7.3712 14.9389 8.46471 15.0263 9.61898C15.0422 9.829 15.2115 10 15.4221 10H15.6186Z" fill="#464646"/>
<path d="M9.62759 12.9018V13.3782C9.62759 13.567 9.7931 13.7288 9.9954 13.7288C10.1977 13.7288 10.3632 13.567 10.3632 13.3782V12.8838C11.3195 12.749 12 12.1198 12 11.2119C12 9.06359 8.85517 9.64786 8.85517 8.0928C8.85517 7.5355 9.28736 7.16696 10.0598 7.16696C10.492 7.16696 10.8046 7.25685 11.0989 7.41865C11.1816 7.46359 11.2644 7.48157 11.3379 7.48157C11.4575 7.48157 11.5586 7.42764 11.623 7.33775C11.669 7.26584 11.6966 7.19393 11.6966 7.13101C11.6966 6.99618 11.6138 6.87932 11.4667 6.79842C11.2 6.64561 10.823 6.51977 10.3632 6.46584V6.07932C10.3632 5.89056 10.1977 5.72876 9.9954 5.72876C9.7931 5.72876 9.62759 5.89056 9.62759 6.07932V6.47483C8.62529 6.61865 8.02759 7.28382 8.02759 8.0928C8.02759 10.1782 11.1724 9.68382 11.1724 11.2209C11.1724 11.8591 10.6299 12.2007 9.95862 12.2007C9.51724 12.2007 9.06667 12.0029 8.63448 11.6883C8.55172 11.6254 8.45977 11.5894 8.36782 11.5894C8.26667 11.5894 8.16552 11.6344 8.08276 11.7333C8.02759 11.8052 8 11.8861 8 11.958C8 12.0658 8.05517 12.1737 8.13793 12.2366C8.56092 12.5872 9.04828 12.8389 9.62759 12.9018Z" fill="#464646"/>
</svg>
