<svg width="18" height="18" viewBox="0 0 18 18" fill="none" xmlns="http://www.w3.org/2000/svg">
<rect x="0.5" y="0.5" width="17" height="17" rx="1.5" stroke="#464646"/>
<path d="M6.05682 5V13.7273H5V5H6.05682Z" fill="#464646"/>
<path d="M8.17578 13.7273V5H11.1246C11.8093 5 12.369 5.12358 12.8036 5.37074C13.2411 5.61506 13.565 5.94602 13.7752 6.36364C13.9854 6.78125 14.0906 7.24716 14.0906 7.76136C14.0906 8.27557 13.9854 8.7429 13.7752 9.16335C13.5678 9.58381 13.2468 9.91903 12.8121 10.169C12.3775 10.4162 11.8207 10.5398 11.1417 10.5398H9.02805V9.60227H11.1076C11.5763 9.60227 11.9528 9.52131 12.2369 9.35938C12.521 9.19744 12.7269 8.97869 12.8548 8.70312C12.9854 8.42472 13.0508 8.1108 13.0508 7.76136C13.0508 7.41193 12.9854 7.09943 12.8548 6.82386C12.7269 6.5483 12.5195 6.33239 12.2326 6.17614C11.9457 6.01705 11.565 5.9375 11.0906 5.9375H9.2326V13.7273H8.17578Z" fill="#464646"/>
</svg>
