<svg width="24" height="24" viewBox="0 0 24 24" fill="none" xmlns="http://www.w3.org/2000/svg">
<path d="M16.3536 10.3536C16.5488 10.1583 16.5488 9.84171 16.3536 9.64645C16.1583 9.45118 15.8417 9.45118 15.6464 9.64645L16.3536 10.3536ZM12 14L11.6464 14.3536C11.8417 14.5488 12.1583 14.5488 12.3536 14.3536L12 14ZM8.35355 9.64645C8.15829 9.45118 7.84171 9.45118 7.64645 9.64645C7.45118 9.84171 7.45118 10.1583 7.64645 10.3536L8.35355 9.64645ZM15.6464 9.64645L11.6464 13.6464L12.3536 14.3536L16.3536 10.3536L15.6464 9.64645ZM12.3536 13.6464L8.35355 9.64645L7.64645 10.3536L11.6464 14.3536L12.3536 13.6464Z" fill="white"/>
</svg>
