<svg width="14" height="14" viewBox="0 0 14 14" fill="none" xmlns="http://www.w3.org/2000/svg">
<path d="M9.75 2.33334H1.58333C1.26117 2.33334 1 2.5945 1 2.91667V3.84171C1 3.99642 1.06146 4.14479 1.17085 4.25419L4.32915 7.41248C4.43854 7.52188 4.5 7.67025 4.5 7.82496V11.3061C4.5 11.7398 4.95635 12.0218 5.34421 11.8279L6.51087 11.2446C6.7085 11.1458 6.83333 10.9438 6.83333 10.7228V7.82496C6.83333 7.67025 6.89479 7.52188 7.00419 7.41248L10.1625 4.25419C10.2719 4.14479 10.3333 3.99642 10.3333 3.84171V2.91667C10.3333 2.5945 10.0722 2.33334 9.75 2.33334Z" stroke="white" stroke-linecap="round" stroke-linejoin="round"/>
</svg>
