<svg width="18" height="18" viewBox="0 0 18 18" fill="none" xmlns="http://www.w3.org/2000/svg">
<path d="M3 3L15 15" stroke="#747374" stroke-width="1.5" stroke-linecap="round" stroke-linejoin="round"/>
<path d="M12.375 12.567C11.3606 13.1135 10.214 13.5 9 13.5C4.85786 13.5 1.5 9 1.5 9C1.5 9 3.06631 6.90093 5.37903 5.57003M14.625 10.9752C15.7919 9.94891 16.5 9 16.5 9C16.5 9 13.1421 4.5 9 4.5C8.74688 4.5 8.49668 4.5168 8.25 4.54836" stroke="#747374" stroke-width="1.5" stroke-linecap="round" stroke-linejoin="round"/>
<path d="M9.99218 10.125C9.72776 10.3584 9.38042 10.5 9 10.5C8.17157 10.5 7.5 9.82845 7.5 9.00002C7.5 8.59539 7.66021 8.22819 7.92066 7.95837" stroke="#747374" stroke-width="1.5" stroke-linecap="round" stroke-linejoin="round"/>
</svg>
