<svg width="28" height="19" viewBox="0 0 28 19" fill="none" xmlns="http://www.w3.org/2000/svg">
<path d="M9.66672 11.1113C11.2622 11.1113 12.5556 9.81787 12.5556 8.22238C12.5556 6.6269 11.2622 5.3335 9.66672 5.3335C8.07123 5.3335 6.77783 6.6269 6.77783 8.22238C6.77783 9.81787 8.07123 11.1113 9.66672 11.1113Z" stroke="#0BB3E8" stroke-linecap="round" stroke-linejoin="round"/>
<path d="M25.5556 1H2.44444C1.6467 1 1 1.6467 1 2.44444V16.8889C1 17.6866 1.6467 18.3333 2.44445 18.3333H25.5556C26.3533 18.3333 27 17.6866 27 16.8889V2.44444C27 1.6467 26.3533 1 25.5556 1Z" stroke="#0BB3E8" stroke-linecap="round" stroke-linejoin="round"/>
<path d="M5.33301 18.3332C5.33301 16.7377 7.27311 15.4443 9.66634 15.4443C12.0596 15.4443 13.9997 16.7377 13.9997 18.3332" stroke="#0BB3E8" stroke-linecap="round" stroke-linejoin="round"/>
<path d="M22.6664 12.5557L16.8887 12.5557" stroke="#0BB3E8" stroke-linecap="round" stroke-linejoin="round"/>
<path d="M22.6663 8.22217L18.333 8.22217" stroke="#0BB3E8" stroke-linecap="round" stroke-linejoin="round"/>
</svg>
