<svg width="20" height="20" viewBox="0 0 20 20" fill="none" xmlns="http://www.w3.org/2000/svg">
<path d="M11.6667 8.33334L11.6667 14.1667" stroke="#464646" stroke-linecap="round" stroke-linejoin="round"/>
<path d="M8.33325 8.33334L8.33325 14.1667" stroke="#464646" stroke-linecap="round" stroke-linejoin="round"/>
<path d="M5 5V4.5C4.72386 4.5 4.5 4.72386 4.5 5H5ZM15 5H15.5C15.5 4.72386 15.2761 4.5 15 4.5V5ZM5 5.5H15V4.5H5V5.5ZM14.5 5V16.6667H15.5V5H14.5ZM14.1667 17H5.83333V18H14.1667V17ZM5.5 16.6667V5H4.5V16.6667H5.5ZM5.83333 17C5.64924 17 5.5 16.8508 5.5 16.6667H4.5C4.5 17.403 5.09695 18 5.83333 18V17ZM14.5 16.6667C14.5 16.8508 14.3508 17 14.1667 17V18C14.903 18 15.5 17.403 15.5 16.6667H14.5Z" fill="#464646"/>
<path d="M3.33325 5H16.6666" stroke="#464646" stroke-linecap="round" stroke-linejoin="round"/>
<path d="M13.3334 5V5.5C13.6096 5.5 13.8334 5.27614 13.8334 5H13.3334ZM6.66675 5H6.16675C6.16675 5.27614 6.39061 5.5 6.66675 5.5V5ZM7.50008 3H12.5001V2H7.50008V3ZM12.8334 3.33333V5H13.8334V3.33333H12.8334ZM13.3334 4.5H6.66675V5.5H13.3334V4.5ZM7.16675 5V3.33333H6.16675V5H7.16675ZM12.5001 3C12.6842 3 12.8334 3.14924 12.8334 3.33333H13.8334C13.8334 2.59695 13.2365 2 12.5001 2V3ZM7.50008 2C6.7637 2 6.16675 2.59695 6.16675 3.33333H7.16675C7.16675 3.14924 7.31599 3 7.50008 3V2Z" fill="#464646"/>
</svg>
