<svg width="19" height="21" viewBox="0 0 19 21" fill="none" xmlns="http://www.w3.org/2000/svg">
<path d="M3 11.5L1.5 14.5L1 15H18.5L17 14L16 12V7.5V5.5L15.5 4L13.5 2L10.5 1L6.5 1.5L4 3L3 5.5V11.5Z" fill="white"/>
<path d="M0 15H19" stroke="white"/>
<path d="M0 15C1.01887 15 1.60214 14.4129 2.26415 13.4886C2.64728 12.9536 3 11.9084 3 11.9084C3 11.9084 3 8.30738 3 6" stroke="white"/>
<path d="M19 15C17.9812 15 17.3979 14.4129 16.7358 13.4886C16.3527 12.9536 16 11.9084 16 11.9084C16 11.9084 16 8.30738 16 6" stroke="white"/>
<path d="M16 6C16 6 16.067 1 9.43357 1C2.80019 1 3.00065 6 3.00065 6" stroke="white"/>
<path d="M6 17C6 17 6 20 9.46847 20C12.9369 20 13 17 13 17" fill="white"/>
<path d="M6 17C6 17 6 20 9.46847 20C12.9369 20 13 17 13 17" stroke="white"/>
<path d="M6 17C6 17 6 20 9.46847 20C12.9369 20 13 17 13 17" stroke="white"/>
</svg>
