<svg width="24" height="24" viewBox="0 0 24 24" fill="none" xmlns="http://www.w3.org/2000/svg">
<path d="M15 10L15 3" stroke="white" stroke-linecap="round" stroke-linejoin="round"/>
<path d="M15 21L15 19" stroke="white" stroke-linecap="round" stroke-linejoin="round"/>
<path d="M17.5 16.5C17.5 15.1193 16.3807 14 15 14C13.6193 14 12.5 15.1193 12.5 16.5C12.5 17.8807 13.6193 19 15 19C16.3807 19 17.5 17.8807 17.5 16.5Z" stroke="white" stroke-linecap="round" stroke-linejoin="round"/>
<path d="M9 4L9 3" stroke="white" stroke-linecap="round" stroke-linejoin="round"/>
<path d="M9 21L9 14" stroke="white" stroke-linecap="round" stroke-linejoin="round"/>
<path d="M11.5 7.5C11.5 6.11929 10.3807 5 9 5C7.61929 5 6.5 6.11929 6.5 7.5C6.5 8.88071 7.61929 10 9 10C10.3807 10 11.5 8.88071 11.5 7.5Z" stroke="white" stroke-linecap="round" stroke-linejoin="round"/>
</svg>
